{
    "asset" : {
        "generator" : "Khronos glTF Blender I/O v1.1.46",
        "version" : "2.0"
    },
    "scene" : 0,
    "scenes" : [
        {
            "name" : "Scene",
            "nodes" : [
                0
            ]
        }
    ],
    "nodes" : [
        {
            "mesh" : 0,
            "name" : "parede da caixinha",
            "scale" : [
                0.5705538392066956,
                0.24730128049850464,
                0.20804904401302338
            ],
            "translation" : [
                -0.23781412839889526,
                0.7621632218360901,
                0.9970859885215759
            ]
        }
    ],
    "materials" : [
        {
            "doubleSided" : true,
            "emissiveFactor" : [
                0,
                0,
                0
            ],
            "name" : "vermelho.006",
            "pbrMetallicRoughness" : {
                "baseColorFactor" : [
                    0.7230426669120789,
                    0.004883364774286747,
                    0,
                    1
                ],
                "metallicFactor" : 0,
                "roughnessFactor" : 0.5
            }
        },
        {
            "doubleSided" : true,
            "emissiveFactor" : [
                0,
                0,
                0
            ],
            "name" : "Branco.007",
            "pbrMetallicRoughness" : {
                "baseColorFactor" : [
                    0.37360212206840515,
                    0.39311426877975464,
                    0.3138156235218048,
                    1
                ],
                "metallicFactor" : 0,
                "roughnessFactor" : 0.4000000059604645
            }
        }
    ],
    "meshes" : [
        {
            "name" : "Cube.012",
            "primitives" : [
                {
                    "attributes" : {
                        "POSITION" : 0,
                        "NORMAL" : 1,
                        "TEXCOORD_0" : 2
                    },
                    "indices" : 3,
                    "material" : 0
                },
                {
                    "attributes" : {
                        "POSITION" : 4,
                        "NORMAL" : 5,
                        "TEXCOORD_0" : 6
                    },
                    "indices" : 7,
                    "material" : 1
                }
            ]
        }
    ],
    "accessors" : [
        {
            "bufferView" : 0,
            "componentType" : 5126,
            "count" : 40,
            "max" : [
                1.0567997694015503,
                3.7107954025268555,
                1
            ],
            "min" : [
                -1.0688244104385376,
                -1.4639320373535156,
                -1.0991778373718262
            ],
            "type" : "VEC3"
        },
        {
            "bufferView" : 1,
            "componentType" : 5126,
            "count" : 40,
            "type" : "VEC3"
        },
        {
            "bufferView" : 2,
            "componentType" : 5126,
            "count" : 40,
            "type" : "VEC2"
        },
        {
            "bufferView" : 3,
            "componentType" : 5123,
            "count" : 60,
            "type" : "SCALAR"
        },
        {
            "bufferView" : 4,
            "componentType" : 5126,
            "count" : 140,
            "max" : [
                1.1700530052185059,
                3.7107956409454346,
                1.4413371086120605
            ],
            "min" : [
                -1.2205578088760376,
                -1.4639317989349365,
                -1.110891580581665
            ],
            "type" : "VEC3"
        },
        {
            "bufferView" : 5,
            "componentType" : 5126,
            "count" : 140,
            "type" : "VEC3"
        },
        {
            "bufferView" : 6,
            "componentType" : 5126,
            "count" : 140,
            "type" : "VEC2"
        },
        {
            "bufferView" : 7,
            "componentType" : 5123,
            "count" : 216,
            "type" : "SCALAR"
        }
    ],
    "bufferViews" : [
        {
            "buffer" : 0,
            "byteLength" : 480,
            "byteOffset" : 0
        },
        {
            "buffer" : 0,
            "byteLength" : 480,
            "byteOffset" : 480
        },
        {
            "buffer" : 0,
            "byteLength" : 320,
            "byteOffset" : 960
        },
        {
            "buffer" : 0,
            "byteLength" : 120,
            "byteOffset" : 1280
        },
        {
            "buffer" : 0,
            "byteLength" : 1680,
            "byteOffset" : 1400
        },
        {
            "buffer" : 0,
            "byteLength" : 1680,
            "byteOffset" : 3080
        },
        {
            "buffer" : 0,
            "byteLength" : 1120,
            "byteOffset" : 4760
        },
        {
            "buffer" : 0,
            "byteLength" : 432,
            "byteOffset" : 5880
        }
    ],
    "buffers" : [
        {
            "byteLength" : 6312,
            "uri" : "data:application/octet-stream;base64,"
        }
    ]
}
