{
    "asset" : {
        "generator" : "Khronos glTF Blender I/O v1.1.46",
        "version" : "2.0"
    },
    "scene" : 0,
    "scenes" : [
        {
            "name" : "Scene",
            "nodes" : [
                0
            ]
        }
    ],
    "nodes" : [
        {
            "mesh" : 0,
            "name" : "Parede de tras",
            "scale" : [
                0.02366800047457218,
                1.27126944065094,
                1.2253799438476562
            ],
            "translation" : [
                -0.9530674815177917,
                1.6705979108810425,
                -0.4109320044517517
            ]
        }
    ],
    "materials" : [
        {
            "doubleSided" : true,
            "emissiveFactor" : [
                0,
                0,
                0
            ],
            "name" : "Branco.006",
            "pbrMetallicRoughness" : {
                "baseColorFactor" : [
                    0.37360212206840515,
                    0.39311426877975464,
                    0.3138156235218048,
                    1
                ],
                "metallicFactor" : 0,
                "roughnessFactor" : 0.4000000059604645
            }
        },
        {
            "doubleSided" : true,
            "emissiveFactor" : [
                0,
                0,
                0
            ],
            "name" : "vermelho.005",
            "pbrMetallicRoughness" : {
                "baseColorFactor" : [
                    0.7230426669120789,
                    0.004883364774286747,
                    0,
                    1
                ],
                "metallicFactor" : 0,
                "roughnessFactor" : 0.5
            }
        }
    ],
    "meshes" : [
        {
            "name" : "Cube.003",
            "primitives" : [
                {
                    "attributes" : {
                        "POSITION" : 0,
                        "NORMAL" : 1,
                        "TEXCOORD_0" : 2
                    },
                    "indices" : 3,
                    "material" : 0
                },
                {
                    "attributes" : {
                        "POSITION" : 4,
                        "NORMAL" : 5,
                        "TEXCOORD_0" : 6
                    },
                    "indices" : 7,
                    "material" : 1
                }
            ]
        }
    ],
    "accessors" : [
        {
            "bufferView" : 0,
            "componentType" : 5126,
            "count" : 105,
            "max" : [
                0.9322357177734375,
                0.012264413759112358,
                1.0235108137130737
            ],
            "min" : [
                -2.5671868324279785,
                -1,
                -1.0251888036727905
            ],
            "type" : "VEC3"
        },
        {
            "bufferView" : 1,
            "componentType" : 5126,
            "count" : 105,
            "type" : "VEC3"
        },
        {
            "bufferView" : 2,
            "componentType" : 5126,
            "count" : 105,
            "type" : "VEC2"
        },
        {
            "bufferView" : 3,
            "componentType" : 5123,
            "count" : 210,
            "type" : "SCALAR"
        },
        {
            "bufferView" : 4,
            "componentType" : 5126,
            "count" : 103,
            "max" : [
                1.0137786865234375,
                1,
                1.0235108137130737
            ],
            "min" : [
                -2.4856438636779785,
                -1,
                -1.0251888036727905
            ],
            "type" : "VEC3"
        },
        {
            "bufferView" : 5,
            "componentType" : 5126,
            "count" : 103,
            "type" : "VEC3"
        },
        {
            "bufferView" : 6,
            "componentType" : 5126,
            "count" : 103,
            "type" : "VEC2"
        },
        {
            "bufferView" : 7,
            "componentType" : 5123,
            "count" : 186,
            "type" : "SCALAR"
        }
    ],
    "bufferViews" : [
        {
            "buffer" : 0,
            "byteLength" : 1260,
            "byteOffset" : 0
        },
        {
            "buffer" : 0,
            "byteLength" : 1260,
            "byteOffset" : 1260
        },
        {
            "buffer" : 0,
            "byteLength" : 840,
            "byteOffset" : 2520
        },
        {
            "buffer" : 0,
            "byteLength" : 420,
            "byteOffset" : 3360
        },
        {
            "buffer" : 0,
            "byteLength" : 1236,
            "byteOffset" : 3780
        },
        {
            "buffer" : 0,
            "byteLength" : 1236,
            "byteOffset" : 5016
        },
        {
            "buffer" : 0,
            "byteLength" : 824,
            "byteOffset" : 6252
        },
        {
            "buffer" : 0,
            "byteLength" : 372,
            "byteOffset" : 7076
        }
    ],
    "buffers" : [
        {
            "byteLength" : 7448,
            "uri" : "data:application/octet-stream;base64,"
        }
    ]
}
