{
    "asset" : {
        "generator" : "Khronos glTF Blender I/O v1.1.46",
        "version" : "2.0"
    },
    "scene" : 0,
    "scenes" : [
        {
            "name" : "Scene",
            "nodes" : [
                0
            ]
        }
    ],
    "nodes" : [
        {
            "mesh" : 0,
            "name" : "Parede frente",
            "scale" : [
                0.019790228456258774,
                0.4196930527687073,
                0.27468734979629517
            ],
            "translation" : [
                0.521106481552124,
                1.1882606744766235,
                -1.1936273574829102
            ]
        }
    ],
    "materials" : [
        {
            "doubleSided" : true,
            "emissiveFactor" : [
                0,
                0,
                0
            ],
            "name" : "Branco.004",
            "pbrMetallicRoughness" : {
                "baseColorFactor" : [
                    0.37360212206840515,
                    0.39311426877975464,
                    0.3138156235218048,
                    1
                ],
                "metallicFactor" : 0,
                "roughnessFactor" : 0.4000000059604645
            }
        },
        {
            "doubleSided" : true,
            "emissiveFactor" : [
                0,
                0,
                0
            ],
            "name" : "vermelho.003",
            "pbrMetallicRoughness" : {
                "baseColorFactor" : [
                    0.7230426669120789,
                    0.004883364774286747,
                    0,
                    1
                ],
                "metallicFactor" : 0,
                "roughnessFactor" : 0.5
            }
        }
    ],
    "meshes" : [
        {
            "name" : "Cube.001",
            "primitives" : [
                {
                    "attributes" : {
                        "POSITION" : 0,
                        "NORMAL" : 1,
                        "TEXCOORD_0" : 2
                    },
                    "indices" : 3,
                    "material" : 0
                },
                {
                    "attributes" : {
                        "POSITION" : 4,
                        "NORMAL" : 5,
                        "TEXCOORD_0" : 6
                    },
                    "indices" : 7,
                    "material" : 1
                }
            ]
        }
    ],
    "accessors" : [
        {
            "bufferView" : 0,
            "componentType" : 5126,
            "count" : 329,
            "max" : [
                1.7079620361328125,
                2.544309377670288,
                7.412854194641113
            ],
            "min" : [
                -4.778785228729248,
                -2.0055758953094482,
                -1.7263946533203125
            ],
            "type" : "VEC3"
        },
        {
            "bufferView" : 1,
            "componentType" : 5126,
            "count" : 329,
            "type" : "VEC3"
        },
        {
            "bufferView" : 2,
            "componentType" : 5126,
            "count" : 329,
            "type" : "VEC2"
        },
        {
            "bufferView" : 3,
            "componentType" : 5123,
            "count" : 585,
            "type" : "SCALAR"
        },
        {
            "bufferView" : 4,
            "componentType" : 5126,
            "count" : 115,
            "max" : [
                -1.9449470043182373,
                4.189756393432617,
                7.307971954345703
            ],
            "min" : [
                -4.709650993347168,
                -1.8683350086212158,
                -1.6140270233154297
            ],
            "type" : "VEC3"
        },
        {
            "bufferView" : 5,
            "componentType" : 5126,
            "count" : 115,
            "type" : "VEC3"
        },
        {
            "bufferView" : 6,
            "componentType" : 5126,
            "count" : 115,
            "type" : "VEC2"
        },
        {
            "bufferView" : 7,
            "componentType" : 5123,
            "count" : 225,
            "type" : "SCALAR"
        }
    ],
    "bufferViews" : [
        {
            "buffer" : 0,
            "byteLength" : 3948,
            "byteOffset" : 0
        },
        {
            "buffer" : 0,
            "byteLength" : 3948,
            "byteOffset" : 3948
        },
        {
            "buffer" : 0,
            "byteLength" : 2632,
            "byteOffset" : 7896
        },
        {
            "buffer" : 0,
            "byteLength" : 1170,
            "byteOffset" : 10528
        },
        {
            "buffer" : 0,
            "byteLength" : 1380,
            "byteOffset" : 11700
        },
        {
            "buffer" : 0,
            "byteLength" : 1380,
            "byteOffset" : 13080
        },
        {
            "buffer" : 0,
            "byteLength" : 920,
            "byteOffset" : 14460
        },
        {
            "buffer" : 0,
            "byteLength" : 450,
            "byteOffset" : 15380
        }
    ],
    "buffers" : [
        {
            "byteLength" : 15832,
            "uri" : "data:application/octet-stream;base64,"
        }
    ]
}
