{"accessors" : [{"bufferView" : 0, "byteOffset" : 0, "componentType" : 5123, "count" : 5727, "type" : "SCALAR", "max" : [1117], "min" : [0]}, {"bufferView" : 1, "byteOffset" : 0, "componentType" : 5126, "count" : 1118, "type" : "VEC3", "max" : [0.977942764759064, 0.684016346931458, 0.317047119140625], "min" : [-0.721654772758484, -0.71454131603241, -84.2332153320313]}, {"bufferView" : 1, "byteOffset" : 12, "componentType" : 5126, "count" : 1118, "type" : "VEC3", "max" : [0.999974071979523, 1.00000441074371, 0.999398112297058], "min" : [-0.999580085277557, -0.999692320823669, -0.998746573925018]}, {"bufferView" : 1, "byteOffset" : 24, "componentType" : 5126, "count" : 1118, "type" : "VEC2", "max" : [1.00000023841858, 1], "min" : [0, 0]}, {"bufferView" : 0, "byteOffset" : 11456, "componentType" : 5123, "count" : 3696, "type" : "SCALAR", "max" : [1282], "min" : [0]}, {"bufferView" : 2, "byteOffset" : 0, "componentType" : 5126, "count" : 1283, "type" : "VEC3", "max" : [0.531654357910156, 0.115242376923561, -17.1817932128906], "min" : [-1.81090307235718, -1.33664298057556, -67.5385971069336]}, {"bufferView" : 2, "byteOffset" : 12, "componentType" : 5126, "count" : 1283, "type" : "VEC3", "max" : [0.999614298343658, 0.990792870521545, 1.00000417232513], "min" : [-0.999614298343658, -0.973417282104492, -1.00000417232513]}, {"bufferView" : 2, "byteOffset" : 24, "componentType" : 5126, "count" : 1283, "type" : "VEC2", "max" : [1, 0.990000009536743], "min" : [0, 0]}, {"bufferView" : 0, "byteOffset" : 18848, "componentType" : 5123, "count" : 5310, "type" : "SCALAR", "max" : [1017], "min" : [0]}, {"bufferView" : 3, "byteOffset" : 0, "componentType" : 5126, "count" : 1018, "type" : "VEC3", "max" : [2.14100408554077, 1.35534286499023, 0.195701599121094], "min" : [-1.51409804821014, -1.12552833557129, -83.9477844238281]}, {"bufferView" : 3, "byteOffset" : 12, "componentType" : 5126, "count" : 1018, "type" : "VEC3", "max" : [0.999922811985016, 0.999994933605194, 0.99638569355011], "min" : [-0.999869704246521, -0.999948024749756, -0.976814925670624]}, {"bufferView" : 3, "byteOffset" : 24, "componentType" : 5126, "count" : 1018, "type" : "VEC2", "max" : [1.00000023841858, 1], "min" : [0, 0]}, {"bufferView" : 0, "byteOffset" : 29468, "componentType" : 5123, "count" : 8640, "type" : "SCALAR", "max" : [1676], "min" : [0]}, {"bufferView" : 4, "byteOffset" : 0, "componentType" : 5126, "count" : 1677, "type" : "VEC3", "max" : [-0.374084174633026, 1.62032222747803, -41.7059516906738], "min" : [-1.3740895986557, 0.794175684452057, -45.7004547119141]}, {"bufferView" : 4, "byteOffset" : 12, "componentType" : 5126, "count" : 1677, "type" : "VEC3", "max" : [0.999724924564362, 0.998709678649902, 0.99686998128891], "min" : [-0.999867677688599, -0.998290657997131, -0.996780872344971]}, {"bufferView" : 4, "byteOffset" : 24, "componentType" : 5126, "count" : 1677, "type" : "VEC2", "max" : [1.00000023841858, 1], "min" : [0, 0]}, {"bufferView" : 0, "byteOffset" : 46748, "componentType" : 5123, "count" : 5760, "type" : "SCALAR", "max" : [1117], "min" : [0]}, {"bufferView" : 5, "byteOffset" : 0, "componentType" : 5126, "count" : 1118, "type" : "VEC3", "max" : [-1.1095472574234, 0.684713125228882, -26.4702739715576], "min" : [-1.36520671844482, 0.465868294239044, -64.4295806884766]}, {"bufferView" : 5, "byteOffset" : 12, "componentType" : 5126, "count" : 1118, "type" : "VEC3", "max" : [0.999934136867523, 0.999985933303833, 0.9968341588974], "min" : [-0.999934136867523, -0.999985933303833, -0.996827483177185]}, {"bufferView" : 5, "byteOffset" : 24, "componentType" : 5126, "count" : 1118, "type" : "VEC2", "max" : [1.00000023841858, 1], "min" : [0, 0]}], "asset" : {"generator" : "Aspose.3D 20.2.1", "version" : "2.0"}, "buffers" : [{"uri" : "buffer.bin", "byteLength" : 257140}], "bufferViews" : [{"buffer" : 0, "byteOffset" : 0, "byteLength" : 58268, "target" : 34963}, {"buffer" : 0, "byteOffset" : 58272, "byteLength" : 35776, "byteStride" : 32, "target" : 34962}, {"buffer" : 0, "byteOffset" : 94052, "byteLength" : 41056, "byteStride" : 32, "target" : 34962}, {"buffer" : 0, "byteOffset" : 135112, "byteLength" : 32576, "byteStride" : 32, "target" : 34962}, {"buffer" : 0, "byteOffset" : 167692, "byteLength" : 53664, "byteStride" : 32, "target" : 34962}, {"buffer" : 0, "byteOffset" : 221360, "byteLength" : 35776, "byteStride" : 32, "target" : 34962}], "materials" : [{"pbrMetallicRoughness" : {"baseColorFactor" : [0.0287968758493662, 0.203858971595764, 0.800000071525574, 1], "metallicFactor" : 0, "roughnessFactor" : 0.5}, "emissiveFactor" : [0, 0, 0], "alphaMode" : "OPAQUE", "doubleSided" : true}, {"pbrMetallicRoughness" : {"baseColorFactor" : [0.800000071525574, 0.538087487220764, 0.146274536848068, 1], "metallicFactor" : 0, "roughnessFactor" : 0.5}, "emissiveFactor" : [0, 0, 0], "alphaMode" : "OPAQUE", "doubleSided" : true}, {"pbrMetallicRoughness" : {"baseColorFactor" : [0.0256534442305565, 0.194322526454926, 0.375749319791794, 1], "metallicFactor" : 0, "roughnessFactor" : 0.5}, "emissiveFactor" : [0, 0, 0], "alphaMode" : "OPAQUE", "doubleSided" : true}, {"pbrMetallicRoughness" : {"baseColorFactor" : [0.800000071525574, 0.0292671788483858, 0, 1], "metallicFactor" : 0, "roughnessFactor" : 0.5}, "emissiveFactor" : [0, 0, 0], "alphaMode" : "OPAQUE", "doubleSided" : true}, {"pbrMetallicRoughness" : {"baseColorFactor" : [0, 0, 0, 1], "metallicFactor" : 0, "roughnessFactor" : 0.5}, "emissiveFactor" : [0, 0, 0], "alphaMode" : "OPAQUE", "doubleSided" : true}], "meshes" : [{"primitives" : [{"attributes" : {"POSITION" : 1, "NORMAL" : 2, "TEXCOORD_0" : 3}, "indices" : 0, "material" : 0, "mode" : 4}, {"attributes" : {"POSITION" : 5, "NORMAL" : 6, "TEXCOORD_0" : 7}, "indices" : 4, "material" : 1, "mode" : 4}, {"attributes" : {"POSITION" : 9, "NORMAL" : 10, "TEXCOORD_0" : 11}, "indices" : 8, "material" : 2, "mode" : 4}, {"attributes" : {"POSITION" : 13, "NORMAL" : 14, "TEXCOORD_0" : 15}, "indices" : 12, "material" : 3, "mode" : 4}, {"attributes" : {"POSITION" : 17, "NORMAL" : 18, "TEXCOORD_0" : 19}, "indices" : 16, "material" : 4, "mode" : 4}]}], "nodes" : [{"matrix" : [-0.160239635541505, 0, -0.163640534011374, 0, 0, 0.19882906973362, 0, 0, 0.00502560647106169, 0, -0.00492116060463344, 0, 1.9861706495285, 0.286355704069138, 0.578345358371735, 1], "mesh" : 0, "name" : "galinha_azul"}], "scene" : 0, "scenes" : [{"nodes" : [0]}]}