{
    "asset" : {
        "generator" : "Khronos glTF Blender I/O v1.1.46",
        "version" : "2.0"
    },
    "scene" : 0,
    "scenes" : [
        {
            "name" : "Scene",
            "nodes" : [
                0
            ]
        }
    ],
    "nodes" : [
        {
            "mesh" : 0,
            "name" : "galinha_laranja",
            "rotation" : [
                0,
                0.6814350485801697,
                0,
                -0.7318785786628723
            ],
            "scale" : [
                0.22903047502040863,
                0.1988290697336197,
                0.0070338137447834015
            ],
            "translation" : [
                -0.5813162326812744,
                3.322080612182617,
                -0.45227503776550293
            ]
        }
    ],
    "materials" : [
        {
            "doubleSided" : true,
            "emissiveFactor" : [
                0,
                0,
                0
            ],
            "name" : "laranja2",
            "pbrMetallicRoughness" : {
                "baseColorFactor" : [
                    0.7484014630317688,
                    0.2514876127243042,
                    0.0018100827001035213,
                    1
                ],
                "metallicFactor" : 0,
                "roughnessFactor" : 0.5
            }
        },
        {
            "doubleSided" : true,
            "emissiveFactor" : [
                0,
                0,
                0
            ],
            "name" : "laranja.001",
            "pbrMetallicRoughness" : {
                "baseColorFactor" : [
                    0.8000000715255737,
                    0.1737353801727295,
                    0,
                    1
                ],
                "metallicFactor" : 0,
                "roughnessFactor" : 0.5
            }
        },
        {
            "doubleSided" : true,
            "emissiveFactor" : [
                0,
                0,
                0
            ],
            "name" : "amarelo.003",
            "pbrMetallicRoughness" : {
                "baseColorFactor" : [
                    0.8000000715255737,
                    0.5380874872207642,
                    0.14627453684806824,
                    1
                ],
                "metallicFactor" : 0,
                "roughnessFactor" : 0.5
            }
        },
        {
            "doubleSided" : true,
            "emissiveFactor" : [
                0,
                0,
                0
            ],
            "name" : "vermelho",
            "pbrMetallicRoughness" : {
                "baseColorFactor" : [
                    0.7230426669120789,
                    0.004883364774286747,
                    0,
                    1
                ],
                "roughnessFactor" : 0.5
            }
        },
        {
            "doubleSided" : true,
            "emissiveFactor" : [
                0,
                0,
                0
            ],
            "name" : "verem.galinha.003",
            "pbrMetallicRoughness" : {
                "baseColorFactor" : [
                    0.8000000715255737,
                    0.02926717884838581,
                    0,
                    1
                ],
                "metallicFactor" : 0,
                "roughnessFactor" : 0.5
            }
        },
        {
            "doubleSided" : true,
            "emissiveFactor" : [
                0,
                0,
                0
            ],
            "name" : "preto.003",
            "pbrMetallicRoughness" : {
                "baseColorFactor" : [
                    0,
                    0,
                    0,
                    1
                ],
                "metallicFactor" : 0,
                "roughnessFactor" : 0.5
            }
        }
    ],
    "meshes" : [
        {
            "name" : "Sphere.007",
            "primitives" : [
                {
                    "attributes" : {
                        "POSITION" : 0,
                        "NORMAL" : 1,
                        "TEXCOORD_0" : 2
                    },
                    "indices" : 3,
                    "material" : 0
                },
                {
                    "attributes" : {
                        "POSITION" : 4,
                        "NORMAL" : 5,
                        "TEXCOORD_0" : 6
                    },
                    "indices" : 7,
                    "material" : 1
                },
                {
                    "attributes" : {
                        "POSITION" : 8,
                        "NORMAL" : 9,
                        "TEXCOORD_0" : 10
                    },
                    "indices" : 11,
                    "material" : 2
                },
                {
                    "attributes" : {
                        "POSITION" : 12,
                        "NORMAL" : 13,
                        "TEXCOORD_0" : 14
                    },
                    "indices" : 15,
                    "material" : 3
                },
                {
                    "attributes" : {
                        "POSITION" : 16,
                        "NORMAL" : 17,
                        "TEXCOORD_0" : 18
                    },
                    "indices" : 19,
                    "material" : 4
                },
                {
                    "attributes" : {
                        "POSITION" : 20,
                        "NORMAL" : 21,
                        "TEXCOORD_0" : 22
                    },
                    "indices" : 23,
                    "material" : 5
                }
            ]
        }
    ],
    "accessors" : [
        {
            "bufferView" : 0,
            "componentType" : 5126,
            "count" : 1118,
            "max" : [
                0.7995704412460327,
                0.6840163469314575,
                88.94992065429688
            ],
            "min" : [
                -0.9000278115272522,
                -0.7145413160324097,
                4.3997802734375
            ],
            "type" : "VEC3"
        },
        {
            "bufferView" : 1,
            "componentType" : 5126,
            "count" : 1118,
            "type" : "VEC3"
        },
        {
            "bufferView" : 2,
            "componentType" : 5126,
            "count" : 1118,
            "type" : "VEC2"
        },
        {
            "bufferView" : 3,
            "componentType" : 5123,
            "count" : 5724,
            "type" : "SCALAR"
        },
        {
            "bufferView" : 4,
            "componentType" : 5126,
            "count" : 1018,
            "max" : [
                1.9626322984695435,
                1.3553428649902344,
                88.8286361694336
            ],
            "min" : [
                -1.6924699544906616,
                -1.125528335571289,
                4.685150146484375
            ],
            "type" : "VEC3"
        },
        {
            "bufferView" : 5,
            "componentType" : 5126,
            "count" : 1018,
            "type" : "VEC3"
        },
        {
            "bufferView" : 6,
            "componentType" : 5126,
            "count" : 1018,
            "type" : "VEC2"
        },
        {
            "bufferView" : 7,
            "componentType" : 5123,
            "count" : 5310,
            "type" : "SCALAR"
        },
        {
            "bufferView" : 8,
            "componentType" : 5126,
            "count" : 1283,
            "max" : [
                0.3532841205596924,
                0.1152423769235611,
                71.45120239257812
            ],
            "min" : [
                -1.9892752170562744,
                -1.3366429805755615,
                21.094337463378906
            ],
            "type" : "VEC3"
        },
        {
            "bufferView" : 9,
            "componentType" : 5126,
            "count" : 1283,
            "type" : "VEC3"
        },
        {
            "bufferView" : 10,
            "componentType" : 5126,
            "count" : 1283,
            "type" : "VEC2"
        },
        {
            "bufferView" : 11,
            "componentType" : 5123,
            "count" : 3696,
            "type" : "SCALAR"
        },
        {
            "bufferView" : 12,
            "componentType" : 5126,
            "count" : 559,
            "max" : [
                -1.1481883525848389,
                1.3390610218048096,
                45.536582946777344
            ],
            "min" : [
                -1.5524611473083496,
                0.7941756844520569,
                42.93247985839844
            ],
            "type" : "VEC3"
        },
        {
            "bufferView" : 13,
            "componentType" : 5126,
            "count" : 559,
            "type" : "VEC3"
        },
        {
            "bufferView" : 14,
            "componentType" : 5126,
            "count" : 559,
            "type" : "VEC2"
        },
        {
            "bufferView" : 15,
            "componentType" : 5123,
            "count" : 2880,
            "type" : "SCALAR"
        },
        {
            "bufferView" : 16,
            "componentType" : 5126,
            "count" : 1118,
            "max" : [
                -0.5524540543556213,
                1.6203222274780273,
                46.92704391479492
            ],
            "min" : [
                -1.3152034282684326,
                0.8938820362091064,
                43.343605041503906
            ],
            "type" : "VEC3"
        },
        {
            "bufferView" : 17,
            "componentType" : 5126,
            "count" : 1118,
            "type" : "VEC3"
        },
        {
            "bufferView" : 18,
            "componentType" : 5126,
            "count" : 1118,
            "type" : "VEC2"
        },
        {
            "bufferView" : 19,
            "componentType" : 5123,
            "count" : 5760,
            "type" : "SCALAR"
        },
        {
            "bufferView" : 20,
            "componentType" : 5126,
            "count" : 1118,
            "max" : [
                -1.2879170179367065,
                0.6847131252288818,
                62.16265869140625
            ],
            "min" : [
                -1.5435764789581299,
                0.4658682942390442,
                24.203290939331055
            ],
            "type" : "VEC3"
        },
        {
            "bufferView" : 21,
            "componentType" : 5126,
            "count" : 1118,
            "type" : "VEC3"
        },
        {
            "bufferView" : 22,
            "componentType" : 5126,
            "count" : 1118,
            "type" : "VEC2"
        },
        {
            "bufferView" : 23,
            "componentType" : 5123,
            "count" : 5760,
            "type" : "SCALAR"
        }
    ],
    "bufferViews" : [
        {
            "buffer" : 0,
            "byteLength" : 13416,
            "byteOffset" : 0
        },
        {
            "buffer" : 0,
            "byteLength" : 13416,
            "byteOffset" : 13416
        },
        {
            "buffer" : 0,
            "byteLength" : 8944,
            "byteOffset" : 26832
        },
        {
            "buffer" : 0,
            "byteLength" : 11448,
            "byteOffset" : 35776
        },
        {
            "buffer" : 0,
            "byteLength" : 12216,
            "byteOffset" : 47224
        },
        {
            "buffer" : 0,
            "byteLength" : 12216,
            "byteOffset" : 59440
        },
        {
            "buffer" : 0,
            "byteLength" : 8144,
            "byteOffset" : 71656
        },
        {
            "buffer" : 0,
            "byteLength" : 10620,
            "byteOffset" : 79800
        },
        {
            "buffer" : 0,
            "byteLength" : 15396,
            "byteOffset" : 90420
        },
        {
            "buffer" : 0,
            "byteLength" : 15396,
            "byteOffset" : 105816
        },
        {
            "buffer" : 0,
            "byteLength" : 10264,
            "byteOffset" : 121212
        },
        {
            "buffer" : 0,
            "byteLength" : 7392,
            "byteOffset" : 131476
        },
        {
            "buffer" : 0,
            "byteLength" : 6708,
            "byteOffset" : 138868
        },
        {
            "buffer" : 0,
            "byteLength" : 6708,
            "byteOffset" : 145576
        },
        {
            "buffer" : 0,
            "byteLength" : 4472,
            "byteOffset" : 152284
        },
        {
            "buffer" : 0,
            "byteLength" : 5760,
            "byteOffset" : 156756
        },
        {
            "buffer" : 0,
            "byteLength" : 13416,
            "byteOffset" : 162516
        },
        {
            "buffer" : 0,
            "byteLength" : 13416,
            "byteOffset" : 175932
        },
        {
            "buffer" : 0,
            "byteLength" : 8944,
            "byteOffset" : 189348
        },
        {
            "buffer" : 0,
            "byteLength" : 11520,
            "byteOffset" : 198292
        },
        {
            "buffer" : 0,
            "byteLength" : 13416,
            "byteOffset" : 209812
        },
        {
            "buffer" : 0,
            "byteLength" : 13416,
            "byteOffset" : 223228
        },
        {
            "buffer" : 0,
            "byteLength" : 8944,
            "byteOffset" : 236644
        },
        {
            "buffer" : 0,
            "byteLength" : 11520,
            "byteOffset" : 245588
        }
    ],
    "buffers" : [
        {
            "byteLength" : 257108,
            "uri" : "data:application/octet-stream;base64,"
        }
    ]
}
