{
    "asset" : {
        "generator" : "Khronos glTF Blender I/O v1.1.46",
        "version" : "2.0"
    },
    "scene" : 0,
    "scenes" : [
        {
            "name" : "Scene",
            "nodes" : [
                0
            ]
        }
    ],
    "nodes" : [
        {
            "mesh" : 0,
            "name" : "galinha_branca",
            "rotation" : [
                0,
                0.1616078019142151,
                0,
                0.9868550896644592
            ],
            "scale" : [
                0.2954186201095581,
                0.21644596755504608,
                0.41911372542381287
            ],
            "translation" : [
                -0.2957792282104492,
                3.319345235824585,
                -0.49119633436203003
            ]
        }
    ],
    "materials" : [
        {
            "doubleSided" : true,
            "emissiveFactor" : [
                0,
                0,
                0
            ],
            "name" : "branco2",
            "pbrMetallicRoughness" : {
                "baseColorFactor" : [
                    0.800000011920929,
                    0.800000011920929,
                    0.800000011920929,
                    1
                ],
                "metallicFactor" : 0,
                "roughnessFactor" : 0.5
            }
        },
        {
            "doubleSided" : true,
            "emissiveFactor" : [
                0,
                0,
                0
            ],
            "name" : "amarelo.002",
            "pbrMetallicRoughness" : {
                "baseColorFactor" : [
                    0.8000000715255737,
                    0.5380874872207642,
                    0.14627453684806824,
                    1
                ],
                "metallicFactor" : 0,
                "roughnessFactor" : 0.5
            }
        },
        {
            "doubleSided" : true,
            "emissiveFactor" : [
                0,
                0,
                0
            ],
            "name" : "verem.galinha.002",
            "pbrMetallicRoughness" : {
                "baseColorFactor" : [
                    0.8000000715255737,
                    0.02926717884838581,
                    0,
                    1
                ],
                "metallicFactor" : 0,
                "roughnessFactor" : 0.5
            }
        },
        {
            "doubleSided" : true,
            "emissiveFactor" : [
                0,
                0,
                0
            ],
            "name" : "preto.002",
            "pbrMetallicRoughness" : {
                "baseColorFactor" : [
                    0,
                    0,
                    0,
                    1
                ],
                "metallicFactor" : 0,
                "roughnessFactor" : 0.5
            }
        },
        {
            "doubleSided" : true,
            "emissiveFactor" : [
                0,
                0,
                0
            ],
            "name" : "branco3",
            "pbrMetallicRoughness" : {
                "baseColorFactor" : [
                    0.7356582283973694,
                    0.7356582283973694,
                    0.7356582283973694,
                    1
                ],
                "metallicFactor" : 0,
                "roughnessFactor" : 0.5
            }
        }
    ],
    "meshes" : [
        {
            "name" : "Sphere.039",
            "primitives" : [
                {
                    "attributes" : {
                        "POSITION" : 0,
                        "NORMAL" : 1,
                        "TEXCOORD_0" : 2
                    },
                    "indices" : 3,
                    "material" : 0
                },
                {
                    "attributes" : {
                        "POSITION" : 4,
                        "NORMAL" : 5,
                        "TEXCOORD_0" : 6
                    },
                    "indices" : 7,
                    "material" : 1
                },
                {
                    "attributes" : {
                        "POSITION" : 8,
                        "NORMAL" : 9,
                        "TEXCOORD_0" : 10
                    },
                    "indices" : 11,
                    "material" : 2
                },
                {
                    "attributes" : {
                        "POSITION" : 12,
                        "NORMAL" : 13,
                        "TEXCOORD_0" : 14
                    },
                    "indices" : 15,
                    "material" : 3
                },
                {
                    "attributes" : {
                        "POSITION" : 16,
                        "NORMAL" : 17,
                        "TEXCOORD_0" : 18
                    },
                    "indices" : 19,
                    "material" : 4
                }
            ]
        }
    ],
    "accessors" : [
        {
            "bufferView" : 0,
            "componentType" : 5126,
            "count" : 1018,
            "max" : [
                0.9996465444564819,
                1.2473927736282349,
                1.0455445051193237
            ],
            "min" : [
                -0.9996471405029297,
                -1.0315561294555664,
                -0.9515653848648071
            ],
            "type" : "VEC3"
        },
        {
            "bufferView" : 1,
            "componentType" : 5126,
            "count" : 1018,
            "type" : "VEC3"
        },
        {
            "bufferView" : 2,
            "componentType" : 5126,
            "count" : 1018,
            "type" : "VEC2"
        },
        {
            "bufferView" : 3,
            "componentType" : 5123,
            "count" : 5310,
            "type" : "SCALAR"
        },
        {
            "bufferView" : 4,
            "componentType" : 5126,
            "count" : 1283,
            "max" : [
                0.6068353652954102,
                0.10822552442550659,
                1.210227131843567
            ],
            "min" : [
                -0.5947127938270569,
                -1.225487470626831,
                -0.056343063712120056
            ],
            "type" : "VEC3"
        },
        {
            "bufferView" : 5,
            "componentType" : 5126,
            "count" : 1283,
            "type" : "VEC3"
        },
        {
            "bufferView" : 6,
            "componentType" : 5126,
            "count" : 1283,
            "type" : "VEC2"
        },
        {
            "bufferView" : 7,
            "componentType" : 5123,
            "count" : 3696,
            "type" : "SCALAR"
        },
        {
            "bufferView" : 8,
            "componentType" : 5126,
            "count" : 1677,
            "max" : [
                0.06217559427022934,
                1.4908052682876587,
                0.971239447593689
            ],
            "min" : [
                -0.0178678035736084,
                0.7318983674049377,
                0.42339807748794556
            ],
            "type" : "VEC3"
        },
        {
            "bufferView" : 9,
            "componentType" : 5126,
            "count" : 1677,
            "type" : "VEC3"
        },
        {
            "bufferView" : 10,
            "componentType" : 5126,
            "count" : 1677,
            "type" : "VEC2"
        },
        {
            "bufferView" : 11,
            "componentType" : 5123,
            "count" : 8640,
            "type" : "SCALAR"
        },
        {
            "bufferView" : 12,
            "componentType" : 5126,
            "count" : 1118,
            "max" : [
                0.4506431519985199,
                0.6313472390174866,
                0.9500313401222229
            ],
            "min" : [
                -0.4566264748573303,
                0.43031391501426697,
                0.8470541834831238
            ],
            "type" : "VEC3"
        },
        {
            "bufferView" : 13,
            "componentType" : 5126,
            "count" : 1118,
            "type" : "VEC3"
        },
        {
            "bufferView" : 14,
            "componentType" : 5126,
            "count" : 1118,
            "type" : "VEC2"
        },
        {
            "bufferView" : 15,
            "componentType" : 5123,
            "count" : 5760,
            "type" : "SCALAR"
        },
        {
            "bufferView" : 16,
            "componentType" : 5126,
            "count" : 1118,
            "max" : [
                1.0024473667144775,
                0.6307063102722168,
                0.5858592987060547
            ],
            "min" : [
                -1.004101037979126,
                -0.654020369052887,
                -0.30747172236442566
            ],
            "type" : "VEC3"
        },
        {
            "bufferView" : 17,
            "componentType" : 5126,
            "count" : 1118,
            "type" : "VEC3"
        },
        {
            "bufferView" : 18,
            "componentType" : 5126,
            "count" : 1118,
            "type" : "VEC2"
        },
        {
            "bufferView" : 19,
            "componentType" : 5123,
            "count" : 5730,
            "type" : "SCALAR"
        }
    ],
    "bufferViews" : [
        {
            "buffer" : 0,
            "byteLength" : 12216,
            "byteOffset" : 0
        },
        {
            "buffer" : 0,
            "byteLength" : 12216,
            "byteOffset" : 12216
        },
        {
            "buffer" : 0,
            "byteLength" : 8144,
            "byteOffset" : 24432
        },
        {
            "buffer" : 0,
            "byteLength" : 10620,
            "byteOffset" : 32576
        },
        {
            "buffer" : 0,
            "byteLength" : 15396,
            "byteOffset" : 43196
        },
        {
            "buffer" : 0,
            "byteLength" : 15396,
            "byteOffset" : 58592
        },
        {
            "buffer" : 0,
            "byteLength" : 10264,
            "byteOffset" : 73988
        },
        {
            "buffer" : 0,
            "byteLength" : 7392,
            "byteOffset" : 84252
        },
        {
            "buffer" : 0,
            "byteLength" : 20124,
            "byteOffset" : 91644
        },
        {
            "buffer" : 0,
            "byteLength" : 20124,
            "byteOffset" : 111768
        },
        {
            "buffer" : 0,
            "byteLength" : 13416,
            "byteOffset" : 131892
        },
        {
            "buffer" : 0,
            "byteLength" : 17280,
            "byteOffset" : 145308
        },
        {
            "buffer" : 0,
            "byteLength" : 13416,
            "byteOffset" : 162588
        },
        {
            "buffer" : 0,
            "byteLength" : 13416,
            "byteOffset" : 176004
        },
        {
            "buffer" : 0,
            "byteLength" : 8944,
            "byteOffset" : 189420
        },
        {
            "buffer" : 0,
            "byteLength" : 11520,
            "byteOffset" : 198364
        },
        {
            "buffer" : 0,
            "byteLength" : 13416,
            "byteOffset" : 209884
        },
        {
            "buffer" : 0,
            "byteLength" : 13416,
            "byteOffset" : 223300
        },
        {
            "buffer" : 0,
            "byteLength" : 8944,
            "byteOffset" : 236716
        },
        {
            "buffer" : 0,
            "byteLength" : 11460,
            "byteOffset" : 245660
        }
    ],
    "buffers" : [
        {
            "byteLength" : 257120,
            "uri" : "data:application/octet-stream;base64,"
        }
    ]
}
