{
    "asset" : {
        "generator" : "Khronos glTF Blender I/O v1.1.46",
        "version" : "2.0"
    },
    "scene" : 0,
    "scenes" : [
        {
            "name" : "Scene",
            "nodes" : [
                0
            ]
        }
    ],
    "nodes" : [
        {
            "mesh" : 0,
            "name" : "galinha_vermelha",
            "rotation" : [
                -0.021289391443133354,
                0.9716582298278809,
                -0.09628568589687347,
                0.2148398607969284
            ],
            "scale" : [
                0.2954186201095581,
                0.21644596755504608,
                0.41911372542381287
            ],
            "translation" : [
                0.6100466847419739,
                0.2794783115386963,
                -2.2842154502868652
            ]
        }
    ],
    "materials" : [
        {
            "doubleSided" : true,
            "emissiveFactor" : [
                0,
                0,
                0
            ],
            "name" : "vermelho2",
            "pbrMetallicRoughness" : {
                "baseColorFactor" : [
                    0.4200241267681122,
                    0.018311521038413048,
                    0,
                    1
                ],
                "metallicFactor" : 0,
                "roughnessFactor" : 0.5
            }
        },
        {
            "doubleSided" : true,
            "emissiveFactor" : [
                0,
                0,
                0
            ],
            "name" : "amarelo",
            "pbrMetallicRoughness" : {
                "baseColorFactor" : [
                    0.8000000715255737,
                    0.5380874872207642,
                    0.14627453684806824,
                    1
                ],
                "metallicFactor" : 0,
                "roughnessFactor" : 0.5
            }
        },
        {
            "doubleSided" : true,
            "emissiveFactor" : [
                0,
                0,
                0
            ],
            "name" : "verem.galinha",
            "pbrMetallicRoughness" : {
                "baseColorFactor" : [
                    0.8000000715255737,
                    0.02926717884838581,
                    0,
                    1
                ],
                "metallicFactor" : 0,
                "roughnessFactor" : 0.5
            }
        },
        {
            "doubleSided" : true,
            "emissiveFactor" : [
                0,
                0,
                0
            ],
            "name" : "preto",
            "pbrMetallicRoughness" : {
                "baseColorFactor" : [
                    0,
                    0,
                    0,
                    1
                ],
                "metallicFactor" : 0,
                "roughnessFactor" : 0.5
            }
        }
    ],
    "meshes" : [
        {
            "name" : "Sphere.015",
            "primitives" : [
                {
                    "attributes" : {
                        "POSITION" : 0,
                        "NORMAL" : 1,
                        "TEXCOORD_0" : 2
                    },
                    "indices" : 3,
                    "material" : 0
                },
                {
                    "attributes" : {
                        "POSITION" : 4,
                        "NORMAL" : 5,
                        "TEXCOORD_0" : 6
                    },
                    "indices" : 7,
                    "material" : 1
                },
                {
                    "attributes" : {
                        "POSITION" : 8,
                        "NORMAL" : 9,
                        "TEXCOORD_0" : 10
                    },
                    "indices" : 11,
                    "material" : 2
                },
                {
                    "attributes" : {
                        "POSITION" : 12,
                        "NORMAL" : 13,
                        "TEXCOORD_0" : 14
                    },
                    "indices" : 15,
                    "material" : 3
                }
            ]
        }
    ],
    "accessors" : [
        {
            "bufferView" : 0,
            "componentType" : 5126,
            "count" : 1018,
            "max" : [
                0.9996465444564819,
                1.2473927736282349,
                1.0455445051193237
            ],
            "min" : [
                -0.9996471405029297,
                -1.0315561294555664,
                -0.9515653848648071
            ],
            "type" : "VEC3"
        },
        {
            "bufferView" : 1,
            "componentType" : 5126,
            "count" : 1018,
            "type" : "VEC3"
        },
        {
            "bufferView" : 2,
            "componentType" : 5126,
            "count" : 1018,
            "type" : "VEC2"
        },
        {
            "bufferView" : 3,
            "componentType" : 5123,
            "count" : 5310,
            "type" : "SCALAR"
        },
        {
            "bufferView" : 4,
            "componentType" : 5126,
            "count" : 1283,
            "max" : [
                0.6068363189697266,
                0.10822552442550659,
                1.2102266550064087
            ],
            "min" : [
                -0.5947147011756897,
                -1.225487470626831,
                -0.05634354054927826
            ],
            "type" : "VEC3"
        },
        {
            "bufferView" : 5,
            "componentType" : 5126,
            "count" : 1283,
            "type" : "VEC3"
        },
        {
            "bufferView" : 6,
            "componentType" : 5126,
            "count" : 1283,
            "type" : "VEC2"
        },
        {
            "bufferView" : 7,
            "componentType" : 5123,
            "count" : 3696,
            "type" : "SCALAR"
        },
        {
            "bufferView" : 8,
            "componentType" : 5126,
            "count" : 2795,
            "max" : [
                1.0024454593658447,
                1.4908052682876587,
                0.9712389707565308
            ],
            "min" : [
                -1.004101037979126,
                -0.654020369052887,
                -0.30747219920158386
            ],
            "type" : "VEC3"
        },
        {
            "bufferView" : 9,
            "componentType" : 5126,
            "count" : 2795,
            "type" : "VEC3"
        },
        {
            "bufferView" : 10,
            "componentType" : 5126,
            "count" : 2795,
            "type" : "VEC2"
        },
        {
            "bufferView" : 11,
            "componentType" : 5123,
            "count" : 14370,
            "type" : "SCALAR"
        },
        {
            "bufferView" : 12,
            "componentType" : 5126,
            "count" : 1118,
            "max" : [
                0.4506421983242035,
                0.6313472390174866,
                0.9500308632850647
            ],
            "min" : [
                -0.45662742853164673,
                0.43031391501426697,
                0.8470537066459656
            ],
            "type" : "VEC3"
        },
        {
            "bufferView" : 13,
            "componentType" : 5126,
            "count" : 1118,
            "type" : "VEC3"
        },
        {
            "bufferView" : 14,
            "componentType" : 5126,
            "count" : 1118,
            "type" : "VEC2"
        },
        {
            "bufferView" : 15,
            "componentType" : 5123,
            "count" : 5760,
            "type" : "SCALAR"
        }
    ],
    "bufferViews" : [
        {
            "buffer" : 0,
            "byteLength" : 12216,
            "byteOffset" : 0
        },
        {
            "buffer" : 0,
            "byteLength" : 12216,
            "byteOffset" : 12216
        },
        {
            "buffer" : 0,
            "byteLength" : 8144,
            "byteOffset" : 24432
        },
        {
            "buffer" : 0,
            "byteLength" : 10620,
            "byteOffset" : 32576
        },
        {
            "buffer" : 0,
            "byteLength" : 15396,
            "byteOffset" : 43196
        },
        {
            "buffer" : 0,
            "byteLength" : 15396,
            "byteOffset" : 58592
        },
        {
            "buffer" : 0,
            "byteLength" : 10264,
            "byteOffset" : 73988
        },
        {
            "buffer" : 0,
            "byteLength" : 7392,
            "byteOffset" : 84252
        },
        {
            "buffer" : 0,
            "byteLength" : 33540,
            "byteOffset" : 91644
        },
        {
            "buffer" : 0,
            "byteLength" : 33540,
            "byteOffset" : 125184
        },
        {
            "buffer" : 0,
            "byteLength" : 22360,
            "byteOffset" : 158724
        },
        {
            "buffer" : 0,
            "byteLength" : 28740,
            "byteOffset" : 181084
        },
        {
            "buffer" : 0,
            "byteLength" : 13416,
            "byteOffset" : 209824
        },
        {
            "buffer" : 0,
            "byteLength" : 13416,
            "byteOffset" : 223240
        },
        {
            "buffer" : 0,
            "byteLength" : 8944,
            "byteOffset" : 236656
        },
        {
            "buffer" : 0,
            "byteLength" : 11520,
            "byteOffset" : 245600
        }
    ],
    "buffers" : [
        {
            "byteLength" : 257120,
            "uri" : "data:application/octet-stream;base64,"
        }
    ]
}
