{
    "asset" : {
        "generator" : "Khronos glTF Blender I/O v1.1.46",
        "version" : "2.0"
    },
    "scene" : 0,
    "scenes" : [
        {
            "name" : "Scene",
            "nodes" : [
                0
            ]
        }
    ],
    "nodes" : [
        {
            "mesh" : 0,
            "name" : "telhado",
            "rotation" : [
                0.9219285249710083,
                0,
                0,
                0.38736000657081604
            ],
            "scale" : [
                0.8345199227333069,
                -0.04250819608569145,
                0.9341557621955872
            ],
            "translation" : [
                -0.24619020521640778,
                2.331646203994751,
                -1.0634863376617432
            ]
        }
    ],
    "materials" : [
        {
            "doubleSided" : true,
            "emissiveFactor" : [
                0,
                0,
                0
            ],
            "name" : "Branco",
            "pbrMetallicRoughness" : {
                "baseColorFactor" : [
                    0.37360212206840515,
                    0.39311426877975464,
                    0.3138156235218048,
                    1
                ],
                "roughnessFactor" : 0.4000000059604645
            }
        }
    ],
    "meshes" : [
        {
            "name" : "Cube.014",
            "primitives" : [
                {
                    "attributes" : {
                        "POSITION" : 0,
                        "NORMAL" : 1,
                        "TEXCOORD_0" : 2
                    },
                    "indices" : 3,
                    "material" : 0
                }
            ]
        }
    ],
    "accessors" : [
        {
            "bufferView" : 0,
            "componentType" : 5126,
            "count" : 634,
            "max" : [
                1.0088839530944824,
                1.957153558731079,
                1.1264437437057495
            ],
            "min" : [
                -1.0118162631988525,
                -46.36731719970703,
                -1.0661225318908691
            ],
            "type" : "VEC3"
        },
        {
            "bufferView" : 1,
            "componentType" : 5126,
            "count" : 634,
            "type" : "VEC3"
        },
        {
            "bufferView" : 2,
            "componentType" : 5126,
            "count" : 634,
            "type" : "VEC2"
        },
        {
            "bufferView" : 3,
            "componentType" : 5123,
            "count" : 1152,
            "type" : "SCALAR"
        }
    ],
    "bufferViews" : [
        {
            "buffer" : 0,
            "byteLength" : 7608,
            "byteOffset" : 0
        },
        {
            "buffer" : 0,
            "byteLength" : 7608,
            "byteOffset" : 7608
        },
        {
            "buffer" : 0,
            "byteLength" : 5072,
            "byteOffset" : 15216
        },
        {
            "buffer" : 0,
            "byteLength" : 2304,
            "byteOffset" : 20288
        }
    ],
    "buffers" : [
        {
            "byteLength" : 22592,
            "uri" : "data:application/octet-stream;base64,"
        }
    ]
}
